<?xml version="1.0" standalone="no"?>
<!DOCTYPE svg PUBLIC "-//W3C//DTD SVG 1.1//EN" "http://www.w3.org/Graphics/SVG/1.1/DTD/svg11.dtd" >
<svg xmlns="http://www.w3.org/2000/svg">
<metadata></metadata>
<defs>
<font id="icomoonregular" horiz-adv-x="512" >
<font-face units-per-em="512" ascent="480" descent="-32" />
<missing-glyph horiz-adv-x="256" />
<glyph horiz-adv-x="0" d="M0 0v0v0v0z" />
<glyph horiz-adv-x="0" d="M0 0v0v0v0z" />
<glyph horiz-adv-x="0" d="M0 0v0v0v0z" />
<glyph unicode=" " horiz-adv-x="256" d="M0 0v0v0v0z" />
<glyph unicode="&#x25fc;" horiz-adv-x="500" d="M0 0v0v0v0v0z" />
<glyph unicode="&#xe600;" d="M492 183q12 -12 16 -28.5t-3.5 -32.5t-27.5 -30t-56 -22q0 16 -12.5 26.5t-35 17.5t-52.5 10t-65 3q-37 0 -68 -3t-53.5 -10t-35 -18t-12.5 -27q-35 7 -54.5 22t-26 32.5t-1 35t19.5 29.5q17 15 32 13t38.5 -11t61 -19t99.5 -10q56 0 93 11t62.5 20t43.5 10t37 -19v0z M256 185q28 0 56 6t50.5 12.5t37 12.5l14.5 6v29q0 24 -8.5 47.5t-27 42t-48.5 30t-74 11.5q-46 0 -76 -12t-48 -30.5t-25.5 -42t-7.5 -46.5v-30l14.5 -5.5t37 -12.5t50.5 -12.5t55 -5.5v0z" />
<glyph unicode="&#xe601;" d="M512 176l-96 96v144h-64v-80l-96 96l-256 -256v-16h64v-160h160v96h64v-96h160v160h64v16z" />
<glyph unicode="&#xe602;" d="M448 352v64h-448v-352q0 -7 2.5 -12.5t7 -10t10 -7t12.5 -2.5h432q10 0 18.5 4t15 10.5t10.5 15t4 18.5v272h-64v0zM416 64h-384v320h384v-320v0zM64 320h320v-32h-320v32zM256 256h128v-32h-128v32zM256 192h128v-32h-128v32zM256 128h96v-32h-96v32zM64 256h160v-160 h-160v160z" />
<glyph unicode="&#xe603;" d="M432 480q17 0 31.5 -6.5t25 -17t17 -25t6.5 -31.5q0 -7 -1 -13.5t-3 -12.5t-5 -11.5t-7 -10.5l-32 -32l-112 112l32 32q5 4 10.5 7t11.5 5t12.5 3t13.5 1v0zM32 112l-32 -144l144 32l296 296l-112 112l-296 -296v0zM358 298l-224 -224l-28 28l224 224l28 -28v0z" />
<glyph unicode="&#xe604;" d="M448 384h-384v-320h384v320v0zM512 448v0v-448h-512v448h512v0zM416 96h-320v64l96 160l131 -160l93 64l-1 -32zM320 304q-1 10 3.5 18.5t10.5 15t15 10.5t18 4q11 0 19 -4t15 -10.5t10.5 -15t4.5 -18.5q-1 -10 -4.5 -18.5t-10.5 -15t-15 -10.5t-19 -4q-9 0 -18 4 t-15 10.5t-10.5 15t-3.5 18.5v0z" />
<glyph unicode="&#xe605;" d="M152 176q0 -22 8 -40.5t22.5 -33t33 -22.5t40.5 -8t40.5 8t33 22.5t22.5 33t8 40.5t-8 40.5t-22.5 33t-33 22.5t-40.5 8t-40.5 -8t-33 -22.5t-22.5 -33t-8 -40.5v0zM480 352h-112q-3 12 -6.5 23.5t-8.5 20.5t-13 14.5t-20 5.5h-128q-12 0 -20 -5.5t-13 -14.5t-8.5 -20.5 t-6.5 -23.5h-112q-7 0 -12.5 -2.5t-10 -7t-7 -10t-2.5 -12.5v-288q0 -7 2.5 -12.5t7 -10t10 -7t12.5 -2.5h448q7 0 12.5 2.5t10 7t7 10t2.5 12.5v288q0 7 -2.5 12.5t-7 10t-10 7t-12.5 2.5v0zM256 34q-29 0 -55 11t-45.5 30.5t-30.5 45.5t-11 55t11 55t30.5 45.5t45.5 30.5 t55 11t55 -11t45.5 -30.5t30.5 -45.5t11 -55t-11 -55t-30.5 -45.5t-45.5 -30.5t-55 -11v0zM480 256h-64v32h64v-32v0z" />
<glyph unicode="&#xe606;" d="M96 191v-222q2 0 4 -0.5t4 -0.5h4h4h16v224h-16h-4h-4t-4 -0.5t-4 -0.5v0zM384 192v-224h16h4h4t4 0.5t4 0.5v222q-2 0 -4 0.5t-4 0.5h-4h-4h-16v0zM512 224q0 53 -20 99.5t-55 81.5t-81.5 55t-99.5 20t-99.5 -20t-81.5 -55t-55 -81.5t-20 -99.5q0 -12 1 -23t3 -22 t5 -21.5t6 -20.5q-3 -7 -6 -13.5t-5 -13.5t-3 -14.5t-1 -15.5q0 -17 4.5 -32.5t13 -28.5t20.5 -23t26 -17v202q-4 -2 -7.5 -4l-7 -4t-6.5 -4.5t-6 -5.5q-2 5 -2.5 10.5t-1 11.5t-1 11.5t-0.5 11.5q0 46 17.5 87t48 71.5t71.5 48t87 17.5t87 -17.5t71.5 -48t48 -71.5 t17.5 -87q0 -6 -0.5 -11.5t-1 -11.5t-1 -11.5t-2.5 -10.5q-3 3 -6 5.5t-6.5 4.5l-7 4t-7.5 4v-202q14 7 26 17t20.5 23t13 28.5t4.5 32.5q0 8 -1 15.5t-3 14.5t-5 13.5t-6 13.5q3 10 6 20.5t5 21.5t3 22t1 23v0z" />
<glyph unicode="&#xe607;" d="M512 265q0 38 -5 71t-14 58t-21 39.5t-26 14.5v0h0.5h0.5v0h-42l-17.5 -12t-48.5 -28.5t-75 -33.5t-96 -28q-2 -8 -3.5 -17.5t-2 -19.5t-1 -21t-0.5 -23q0 -11 0.5 -22t1 -21t2 -19.5t3.5 -17.5q52 -11 96 -28.5t75 -33.5t48.5 -28l17.5 -12h42v0h-0.5h-0.5v0 q14 0 26 14.5t21 39t14 58t5 70.5v0zM432 110q-1 0 -3 1t-3.5 2t-3 2.5l-2.5 2.5q-2 3 -4.5 6t-4.5 7l-4.5 9t-4.5 10q-4 11 -7.5 24.5t-5.5 28t-3.5 30.5t-1.5 32q0 17 1.5 32.5t3.5 30.5t5.5 28t7.5 25q2 5 4.5 9.5t4.5 8.5t4.5 7.5t4.5 6.5q1 1 2.5 2t3 2.5t3.5 2t3 0.5 q2 0 4 -0.5t3.5 -2t3 -2.5t2.5 -2q2 -3 4.5 -6.5t4.5 -7.5t4 -8.5t4 -9.5q5 -12 8 -25t5.5 -28t3.5 -30.5t1 -32.5q0 -16 -1 -32t-3.5 -30.5t-5.5 -28t-8 -24.5l-4 -10t-4 -9t-4.5 -7t-4.5 -6l-2.5 -2.5t-3 -2.5t-3.5 -2t-4 -1v0zM126 265q0 10 0.5 19.5l1 19t1.5 18.5l2 18 q-8 -1 -16.5 -2l-17 -2t-17.5 -1h-19h-19h-10h-3.5h-0.5l-28 -48v-44l28 -47h0.5h3.5h10h19q10 0 19 -0.5t17.5 -1t17 -1.5t16.5 -2l-2 18t-1.5 18t-1 19t-0.5 19v0zM184 159l-64 12l41 -161q1 -3 2.5 -5t4 -3.5t5.5 -1.5t6 1l60 24q3 1 5 3t3 5t0.5 6t-1.5 5l-62 115v0z M432 206h-1t-1.5 0.5l-1 1t-0.5 1.5l-2 2t-2 2.5t-1.5 3.5t-1.5 4q-2 4 -3 9.5l-2 11t-1.5 11.5t-0.5 12q0 7 0.5 13t1.5 11.5t2 10.5t3 10q1 2 1.5 3.5t1.5 3.5t2 3l2 2q0 1 0.5 1.5t1 0.5t1.5 0.5l1 0.5q1 0 1.5 -0.5t1.5 -0.5t1.5 -0.5t0.5 -1.5l2 -2t2 -3t1.5 -3.5 t1.5 -3.5q2 -5 3 -10t2 -10.5t1.5 -11.5t0.5 -13q0 -6 -0.5 -12t-1.5 -11.5l-2 -11t-3 -9.5q-1 -2 -1.5 -4t-1.5 -3.5t-2 -2.5l-2 -2q0 -1 -0.5 -1.5t-1.5 -1t-1.5 -0.5h-1.5v0z" />
<glyph unicode="&#xe608;" d="M432 480h-384q-10 0 -18.5 -4t-15 -10.5t-10.5 -15t-4 -18.5v-416q0 -10 4 -18.5t10.5 -15t15 -10.5t18.5 -4h384q10 0 18.5 4t15 10.5t10.5 15t4 18.5v416q0 10 -4 18.5t-10.5 15t-15 10.5t-18.5 4v0zM416 32h-352v384h352v-384v0zM128 256h224v-32h-224v32zM128 192 h224v-32h-224v32zM128 128h224v-32h-224v32zM128 320h224v-32h-224v32z" />
<glyph unicode="&#xe609;" d="M0 416h64v-320h-64v320zM96 416h32v-320h-32v320zM160 416h32v-320h-32v320zM256 416h32v-320h-32v320zM384 416h32v-320h-32v320zM480 416h32v-320h-32v320zM320 416h16v-320h-16v320zM224 416h16v-320h-16v320zM432 416h16v-320h-16v320zM0 64h32v-32h-32v32zM96 64h32 v-32h-32v32zM160 64h32v-32h-32v32zM320 64h32v-32h-32v32zM480 64h32v-32h-32v32zM384 64h64v-32h-64v32zM224 64h64v-32h-64v32z" />
<glyph unicode="&#xe60a;" d="M288 320l64 -64l-128 -128l-64 64zM501 331l-37 37l-16 -16q-3 -3 -6.5 -5.5t-7.5 -4t-8.5 -2.5t-9.5 -1q-9 0 -17.5 3.5t-14.5 9.5t-9.5 14.5t-3.5 17.5q0 5 1 9.5t2.5 8.5t4 7.5t5.5 6.5l16 16l-37 37q-5 5 -12.5 8t-14.5 3t-14.5 -3t-12.5 -8l-298 -298 q-5 -5 -8 -12.5t-3 -14.5t3 -14.5t8 -12.5l37 -37l16 16q3 3 6.5 5.5t7.5 4t8.5 2.5t9.5 1q9 0 17.5 -3.5t14.5 -9.5t9.5 -14.5t3.5 -17.5q0 -5 -1 -9.5t-2.5 -8.5t-4 -7.5t-5.5 -6.5l-16 -16l37 -37q5 -5 12.5 -8t14.5 -3t14.5 3t12.5 8l298 298q5 5 8 12.5t3 14.5t-3 14.5 t-8 12.5v0zM224 64l-128 128l192 192l128 -128l-192 -192v0z" />
<glyph unicode="&#xe60b;" d="M424 192q7 0 13 2.5t12 6.5t10 9.5t6 12.5l46 162q3 7 1.5 12.5t-4.5 9.5t-8.5 6.5t-10.5 2.5h-329q1 13 -4.5 25t-13.5 20.5t-20.5 13.5t-24.5 5h-97l1 -64h95l1 -272q-1 -10 3.5 -18.5t10.5 -15t15 -10.5t18 -4h305q6 0 12 2.5t10 7t7 10t2 12.5q1 7 -2 12.5t-7 10 t-10 7t-12 2.5h-289l1 32h263v0zM161 352h288l-26 -96h-263l1 96v0zM192 8q1 -8 -2.5 -15.5t-8.5 -13t-13 -8.5t-15 -3h-17q-7 0 -15 3t-13 8.5t-8.5 13t-2.5 15.5l-1 16q1 8 3.5 15.5t8.5 13t13 8.5t16 3h15q9 0 16 -3t13 -8.5t8.5 -13t3.5 -15.5l-1 -16v0zM481 8 q-1 -8 -3.5 -15.5t-8.5 -13t-13 -8.5t-16 -3h-15q-9 0 -16 3t-13 8.5t-8.5 13t-3.5 15.5l1 16q-1 8 2.5 15.5t8.5 13t13 8.5t15 3h17q7 0 15 -3t13 -8.5t8.5 -13t2.5 -15.5l1 -16v0z" />
<glyph unicode="&#xe60c;" d="M240 448q-50 0 -93.5 -19t-76 -51.5t-51.5 -76t-19 -93.5t19 -93.5t51.5 -76t76 -51.5t93.5 -19t93.5 19t76 51.5t51.5 76t19 93.5t-19 93.5t-51.5 76t-76 51.5t-93.5 19v0zM240 16q-40 0 -75 15t-61 41t-41 61t-15 75t15 75t41 61t61 41t75 15t75 -15t61 -41t41 -61 t15 -75t-15 -75t-41 -61t-61 -41t-75 -15v0zM256 224v64h64v32h-64v32h-32v-32h-64v-128h64v-64h-64v-32h64v-32h32v32h64v128h-64v0zM224 224h-32v64h32v-64v0zM288 128h-32v64h32v-64v0z" />
<glyph unicode="&#xe60d;" d="M464 416h-416q-10 0 -18.5 -4t-15 -10.5t-10.5 -15t-4 -18.5v-288q0 -10 4 -18.5t10.5 -15t15 -10.5t18.5 -4h416q10 0 18.5 4t15 10.5t10.5 15t4 18.5v288q0 10 -4 18.5t-10.5 15t-15 10.5t-18.5 4v0zM48 384h416q3 0 6 -1.5t5 -3.5t3.5 -5t1.5 -6v-48h-448v48 q0 3 1.5 6t3.5 5t5 3.5t6 1.5v0zM464 64h-416q-3 0 -6 1.5t-5 3.5t-3.5 5t-1.5 6v144h448v-144q0 -3 -1.5 -6t-3.5 -5t-5 -3.5t-6 -1.5v0zM64 160h32v-64h-32v64zM128 160h32v-64h-32v64zM192 160h32v-64h-32v64z" />
<glyph unicode="&#xe60e;" d="M352 160q-12 -12 -19 -23.5t-13 -20.5t-13 -14.5t-19 -5.5t-24 5.5t-24 14.5t-24 20.5t-24 23.5t-23.5 24t-20.5 24t-14.5 24t-5.5 24t5.5 19t14.5 13t20.5 13t23.5 19t3 33.5t-27 42.5t-39 36.5t-33 15.5t-28.5 -15t-31.5 -33t-25.5 -33l-10.5 -15q0 -24 11 -58 t29.5 -70.5t41.5 -70.5t46 -57t57 -46t70.5 -41.5t70.5 -29.5t58 -11l15 10.5t33 25.5t33 31.5t15 28.5t-15.5 33t-36.5 39t-42.5 27t-33.5 -3v0z" />
<glyph unicode="&#xe60f;" d="M256 480q-33 0 -62 -12.5t-51 -34.5t-34.5 -51t-12.5 -62q0 -60 25 -122.5t55 -113.5t55 -83.5l25 -32.5l25 32.5t55 83.5t55 113.5t25 122.5q0 33 -12.5 62t-34.5 51t-51 34.5t-62 12.5v0zM256 224q-20 0 -37.5 7.5t-30.5 20.5t-20.5 30.5t-7.5 37.5t7.5 37.5t20.5 30.5 t30.5 20.5t37.5 7.5t37.5 -7.5t30.5 -20.5t20.5 -30.5t7.5 -37.5t-7.5 -37.5t-20.5 -30.5t-30.5 -20.5t-37.5 -7.5v0z" />
<glyph unicode="&#xe610;" d="M256 480q-53 0 -99.5 -20t-81.5 -55t-55 -81.5t-20 -99.5t20 -99.5t55 -81.5t81.5 -55t99.5 -20t99.5 20t81.5 55t55 81.5t20 99.5t-20 99.5t-55 81.5t-81.5 55t-99.5 20v0zM256 16q-43 0 -81 16.5t-66 44.5t-44.5 66t-16.5 81t16.5 81t44.5 66t66 44.5t81 16.5t81 -16.5 t66 -44.5t44.5 -66t16.5 -81t-16.5 -81t-44.5 -66t-66 -44.5t-81 -16.5v0zM304 272l-144 80h-32v-32l80 -144l144 -80h32v32l-80 144v0zM256 192q-7 0 -12.5 2.5t-10 7t-7 10t-2.5 12.5t2.5 12.5t7 10t10 7t12.5 2.5t12.5 -2.5t10 -7t7 -10t2.5 -12.5t-2.5 -12.5t-7 -10 t-10 -7t-12.5 -2.5v0z" />
<glyph unicode="&#xe611;" d="M0 384l160 64v-384l-160 -64v384zM352 384v-384l-160 53v384zM512 448v-384l-128 -51v384z" />
<glyph unicode="&#xe612;" d="M448 416h-48v-16q0 -7 -2.5 -12.5t-7 -10t-10 -7t-12.5 -2.5t-12.5 2.5t-10 7t-7 10t-2.5 12.5v16h-160v-16q0 -7 -2.5 -12.5t-7 -10t-10 -7t-12.5 -2.5t-12.5 2.5t-10 7t-7 10t-2.5 12.5v16h-48q-7 0 -12.5 -2.5t-10 -7t-7 -10t-2.5 -12.5v-352q0 -7 2.5 -12.5t7 -10 t10 -7t12.5 -2.5h384q7 0 12.5 2.5t10 7t7 10t2.5 12.5v352q0 7 -2.5 12.5t-7 10t-10 7t-12.5 2.5v0zM448 32v0v0v0v0h-384v0v0v0v0v288h384v-288v0zM144 384q3 0 6 1.5t5 3.5t3.5 5t1.5 6v64q0 3 -1.5 6t-3.5 5t-5 3.5t-6 1.5t-6 -1.5t-5 -3.5t-3.5 -5t-1.5 -6v-64 q0 -3 1.5 -6t3.5 -5t5 -3.5t6 -1.5v0zM368 384q3 0 6 1.5t5 3.5t3.5 5t1.5 6v64q0 3 -1.5 6t-3.5 5t-5 3.5t-6 1.5t-6 -1.5t-5 -3.5t-3.5 -5t-1.5 -6v-64q0 -3 1.5 -6t3.5 -5t5 -3.5t6 -1.5v0zM288 288h-160v-32h128v-64h-128v-32h128v-64h-128v-32h160v224zM352 64h32v224 h-64v-32h32v-192zM436 -12h-360q-7 0 -12.5 2t-10 5.5t-7 8.5t-2.5 12v-16q0 -7 2.5 -12.5t7 -10t10 -7t12.5 -2.5h360q7 0 12.5 2.5t10 7t7 10t2.5 12.5v16q0 -7 -2.5 -12t-7 -8.5t-10 -5.5t-12.5 -2v0z" />
<glyph unicode="&#xe613;" d="M512 64v384h-512v-384h224v-32h-96v-32h256v32h-96v32h224v0zM64 384h384v-256h-384v256v0z" />
<glyph unicode="&#xe614;" d="M368 480h-224q-10 0 -18.5 -4t-15 -10.5t-10.5 -15t-4 -18.5v-416q0 -10 4 -18.5t10.5 -15t15 -10.5t18.5 -4h224q10 0 18.5 4t15 10.5t10.5 15t4 18.5v416q0 10 -4 18.5t-10.5 15t-15 10.5t-18.5 4v0zM192 456h128v-16h-128v16v0zM256 0q-7 0 -12.5 2.5t-10 7t-7 10 t-2.5 12.5t2.5 12.5t7 10t10 7t12.5 2.5t12.5 -2.5t10 -7t7 -10t2.5 -12.5t-2.5 -12.5t-7 -10t-10 -7t-12.5 -2.5v0zM384 96h-256v320h256v-320v0z" />
<glyph unicode="&#xe615;" d="M400 480h-320q-10 0 -18.5 -4t-15 -10.5t-10.5 -15t-4 -18.5v-416q0 -10 4 -18.5t10.5 -15t15 -10.5t18.5 -4h320q10 0 18.5 4t15 10.5t10.5 15t4 18.5v416q0 10 -4 18.5t-10.5 15t-15 10.5t-18.5 4v0zM240 -16q-3 0 -6 1.5t-5 3.5t-3.5 5t-1.5 6t1.5 6t3.5 5t5 3.5 t6 1.5t6 -1.5t5 -3.5t3.5 -5t1.5 -6t-1.5 -6t-3.5 -5t-5 -3.5t-6 -1.5v0zM384 32h-288v384h288v-384v0z" />
<glyph unicode="&#xe616;" d="M512 224q0 13 -1.5 25t-4.5 24.5t-6.5 24.5t-8.5 23q-5 12 -11.5 22.5t-13.5 21t-15 20t-17 17.5q-9 9 -18.5 16.5t-20 14t-21.5 12.5t-22 10q-12 5 -23.5 8t-23.5 5t-24.5 3t-24.5 1t-24 -1.5t-24 -4t-23.5 -6.5t-22.5 -9t-21.5 -10.5t-20.5 -12.5t-19 -15l-18 -16 q-8 -9 -15.5 -18.5t-13.5 -19.5t-11.5 -20.5t-10.5 -21.5q-4 -11 -7 -22.5t-5 -23.5t-3 -23.5t-1 -23.5t1.5 -23.5t4 -23t6 -22.5t8.5 -22t10.5 -21t12.5 -19.5t14.5 -18.5t15.5 -17t17.5 -15t19 -13.5t20 -11.5t20.5 -9q11 -4 22 -7.5t22.5 -5.5t23 -2.5t22.5 -0.5 t22.5 1.5t22.5 4t22 6t21 7.5q10 5 20 10.5t19 12t17.5 14t16.5 15.5t15 16.5t13 18t11 19.5t9 20q2 7 4 13.5l4 13t3 13t2 12.5h0.5h0.5h0.5h0.5q7 0 12.5 2.5t10 7t7 10.5t2.5 12v1v0.5v1v0.5v0v0zM461 139q-4 -10 -9.5 -19.5t-11.5 -18.5t-13.5 -17t-14.5 -16 q-8 -7 -16.5 -13.5t-17.5 -12.5t-19 -11t-20 -8q-10 -4 -20 -7t-20.5 -5t-21 -2.5t-21.5 -0.5t-21.5 1.5t-20.5 3.5t-20 5.5t-20 7.5t-19 9.5t-17.5 11.5t-16.5 13t-15 14q-7 8 -13.5 16t-12 17t-10 18t-8.5 19q-4 9 -6.5 19t-4.5 20t-2.5 20.5t-0.5 20.5t1.5 20t3.5 20 t5.5 20t7.5 19t9 18t10.5 17t12 15.5t14.5 14.5q7 7 15 13t16.5 11.5t17 10t18.5 8.5q9 3 18.5 5.5t19 4.5t19.5 2.5t20 0.5t19.5 -1.5t19 -3.5t19 -5t18.5 -7t17.5 -9t16 -10.5t15 -11.5t14.5 -13q6 -7 12 -15t11 -16t9.5 -16.5t7.5 -17.5q4 -9 6.5 -18t4 -18.5t2 -19 t0.5 -18.5v0v-0.5v-1v-0.5v-1q0 -6 2 -11.5t6 -9.5t9.5 -7t11.5 -3q-2 -7 -3.5 -13.5t-3.5 -13t-4 -12.5t-5 -12v0z" />
<glyph unicode="&#xe617;" d="M352 480q-33 0 -62 -12.5t-51 -34.5t-34.5 -51t-12.5 -62v-7.5t0.5 -7.5t1 -7.5t1.5 -6.5l-195 -195v-96q0 -7 2.5 -12.5t7 -10t10 -7t12.5 -2.5h32v32h64v64h64v64h64l42 42q6 -3 12.5 -4.5t13.5 -3t14 -2t14 -0.5q33 0 62 12.5t51 34.5t34.5 51t12.5 62t-12.5 62 t-34.5 51t-51 34.5t-62 12.5v0zM400 320q-10 0 -18.5 3.5t-15.5 10.5t-10.5 15.5t-3.5 18.5t3.5 18.5t10.5 15t15.5 10.5t18.5 4t18.5 -4t15 -10.5t10.5 -15t4 -18.5t-4 -18.5t-10.5 -15.5t-15 -10.5t-18.5 -3.5v0z" />
<glyph unicode="&#xe618;" d="M296 256h-8v96q0 20 -7.5 37.5t-20.5 30.5t-30.5 20.5t-37.5 7.5h-64q-20 0 -37.5 -7.5t-30.5 -20.5t-20.5 -30.5t-7.5 -37.5v-96h-8q-5 0 -9.5 -2t-7.5 -5t-5 -7.5t-2 -9.5v-240q0 -5 2 -9.5t5 -7.5t7.5 -5t9.5 -2h272q5 0 9.5 2t7.5 5t5 7.5t2 9.5v240q0 5 -2 9.5 t-5 7.5t-7.5 5t-9.5 2v0zM192 32h-64l14 70q-3 2 -5.5 4.5t-4.5 6t-3 7.5t-1 8q0 7 2.5 12.5t7 10t10 7t12.5 2.5t12.5 -2.5t10 -7t7 -10t2.5 -12.5q0 -4 -1 -8t-3 -7.5t-4.5 -6t-5.5 -4.5l14 -70v0zM224 256h-128v96q0 7 2.5 12.5t7 10t10 7t12.5 2.5h64q7 0 12.5 -2.5 t10 -7t7 -10t2.5 -12.5v-96v0z" />
<glyph unicode="&#xe619;" d="M501 71l-230 197q4 8 7 16t5.5 16.5t3.5 17.5t1 18q0 30 -11.5 56t-31 45.5t-45.5 31t-56 11.5q-5 0 -10.5 -0.5l-11 -1t-10.5 -2t-10 -2.5l83 -83q5 -5 7.5 -11t2.5 -12t-2.5 -12t-7.5 -11l-50 -50q-5 -5 -11 -7.5t-12 -2.5t-12 2.5t-11 7.5l-83 83q-1 -5 -2.5 -10 t-2 -10.5l-1 -11t-0.5 -10.5q0 -30 11.5 -56t31 -45.5t45.5 -31t56 -11.5q9 0 18 1t17.5 3.5t16.5 5.5t16 7l197 -230q4 -5 9.5 -8t11.5 -3t12 2t10 7l51 51q5 4 7 10t2 12t-3 11.5t-8 9.5v0z" />
<glyph unicode="&#xe61a;" d="M432 480q-17 0 -31.5 -6.5t-25 -17t-17 -25t-6.5 -31.5v-240h64v-192h96v432q0 17 -6.5 31.5t-17 25t-25 17t-31.5 6.5v0zM208 480q-3 0 -6 -1.5t-5 -3.5t-3.5 -5t-1.5 -6v-112q0 -2 -1.5 -3.5t-3.5 -2.5t-5 -1.5t-6 -0.5t-6 0.5t-5 1.5t-3.5 2.5t-1.5 3.5v112 q0 3 -1.5 6t-3.5 5t-5 3.5t-6 1.5t-6 -1.5t-5 -3.5t-3.5 -5t-1.5 -6v-112q0 -2 -1.5 -3.5t-3.5 -2.5t-5 -1.5t-6 -0.5t-6 0.5t-5 1.5t-3.5 2.5t-1.5 3.5v112q0 3 -1.5 6t-3.5 5t-5 3.5t-6 1.5t-6 -1.5t-5 -3.5t-3.5 -5t-1.5 -6v-112q0 -2 -1.5 -3.5t-3.5 -2.5t-5 -1.5 t-6 -0.5t-6 0.5t-5 1.5t-3.5 2.5t-1.5 3.5v112q0 3 -1.5 6t-3.5 5t-5 3.5t-6 1.5t-6 -1.5t-5 -3.5t-3.5 -5t-1.5 -6v-144q0 -5 2 -9.5t6 -8t8.5 -7t10.5 -7.5q6 -5 12.5 -10.5t12 -13t9 -17.5t3.5 -23v-256h96v256q0 13 3.5 23t9 17.5t12 13t12.5 10.5q6 4 10.5 7.5t8.5 7 t6 8t2 9.5v144q0 3 -1.5 6t-3.5 5t-5 3.5t-6 1.5v0z" />
<glyph unicode="&#xe61b;" d="M480 352h-128v32q0 7 -2.5 12.5t-7 10t-10 7t-12.5 2.5h-128q-7 0 -12.5 -2.5t-10 -7t-7 -10t-2.5 -12.5v-32h-128q-7 0 -12.5 -2.5t-10 -7t-7 -10t-2.5 -12.5v-288q0 -7 2.5 -12.5t7 -10t10 -7t12.5 -2.5h448q7 0 12.5 2.5t10 7t7 10t2.5 12.5v288q0 7 -2.5 12.5t-7 10 t-10 7t-12.5 2.5v0zM192 384v0v0v0v0h128v0v0v0v0v-32h-128v32v0zM480 224h-64v-48q0 -3 -1.5 -6t-3.5 -5t-5 -3.5t-6 -1.5h-32q-3 0 -6 1.5t-5 3.5t-3.5 5t-1.5 6v48h-192v-48q0 -3 -1.5 -6t-3.5 -5t-5 -3.5t-6 -1.5h-32q-3 0 -6 1.5t-5 3.5t-3.5 5t-1.5 6v48h-64v32h448 v-32v0z" />
<glyph unicode="&#xe61c;" d="M384 160l-91 91l219 165l-64 64l-274 -110l-87 87q-9 9 -19.5 14.5t-21 7.5t-20 -0.5t-16.5 -8.5q-6 -7 -8.5 -16.5t-0.5 -20t7.5 -21t14.5 -19.5l87 -87l-110 -274l64 -64l165 219l91 -91v-128h64l32 96l96 32v64h-128v0z" />
<glyph unicode="&#xe61d;" d="M352 -32h160l-128 512h-96l16 -128h-96l16 128h-96l-128 -512h160l16 128h160l16 -128v0zM184 160l16 128h112l16 -128h-144v0z" />
<glyph unicode="&#xe61e;" d="M512 339l-45 45l-90 -89l-50 50l89 90l-45 45l-90 -89l-57 57l-43 -43l256 -256l43 43l-57 57zM137 105q31 -31 66.5 -36.5t70 4t66.5 29.5t57 41l-222 222q-21 -25 -41 -57t-29.5 -66.5t-4 -70t36.5 -66.5v0zM96 128l64 -64l-96 -96l-64 64z" />
<glyph unicode="&#xe61f;" d="M512 224q0 -53 -20 -99.5t-55 -81.5t-81.5 -55t-99.5 -20t-99.5 20t-81.5 55t-55 81.5t-20 99.5t20 99.5t55 81.5t81.5 55t99.5 20t99.5 -20t81.5 -55t55 -81.5t20 -99.5v0zM48 224q0 -43 16.5 -81t44.5 -66t66 -44.5t81 -16.5t81 16.5t66 44.5t44.5 66t16.5 81t-16.5 81 t-44.5 66t-66 44.5t-81 16.5t-81 -16.5t-66 -44.5t-44.5 -66t-16.5 -81v0zM279 375l128 -128q4 -5 6.5 -11t2.5 -12t-2.5 -12t-6.5 -11q-5 -4 -11 -6.5t-12 -2.5t-12 2.5t-11 6.5l-73 74v-179q0 -7 -2.5 -12.5t-7 -10t-10 -7t-12.5 -2.5t-12.5 2.5t-10 7t-7 10t-2.5 12.5 v179l-73 -74q-5 -4 -11 -6.5t-12 -2.5t-12 2.5t-11 6.5q-2 3 -3.5 5.5t-3 5.5t-2 6t-0.5 6t0.5 6t2 6t3 5.5t3.5 5.5l128 128q5 4 11 6.5t12 2.5t12 -2.5t11 -6.5v0z" />
<glyph unicode="&#xe620;" d="M512 224q0 53 -20 99.5t-55 81.5t-81.5 55t-99.5 20t-99.5 -20t-81.5 -55t-55 -81.5t-20 -99.5t20 -99.5t55 -81.5t81.5 -55t99.5 -20t99.5 20t81.5 55t55 81.5t20 99.5v0zM48 224q0 43 16.5 81t44.5 66t66 44.5t81 16.5t81 -16.5t66 -44.5t44.5 -66t16.5 -81t-16.5 -81 t-44.5 -66t-66 -44.5t-81 -16.5t-81 16.5t-66 44.5t-44.5 66t-16.5 81v0zM279 73l128 128q4 5 6.5 11t2.5 12t-2.5 12t-6.5 11q-5 4 -11 6.5t-12 2.5t-12 -2.5t-11 -6.5l-73 -74v179q0 7 -2.5 12.5t-7 10t-10 7t-12.5 2.5t-12.5 -2.5t-10 -7t-7 -10t-2.5 -12.5v-179l-73 74 q-5 4 -11 6.5t-12 2.5t-12 -2.5t-11 -6.5q-2 -3 -3.5 -5.5t-3 -5.5t-2 -6t-0.5 -6t0.5 -6t2 -6t3 -5.5t3.5 -5.5l128 -128q5 -4 11 -6.5t12 -2.5t12 2.5t11 6.5v0z" />
<glyph unicode="&#xe621;" d="M432 128q-8 0 -16 -1.5t-15.5 -5t-14 -8t-12.5 -9.5l-215 107q0 2 0.5 3.5t0.5 3v3v3.5v3.5v3t-0.5 3t-0.5 3.5l215 107q6 -5 12.5 -9.5t14 -8t15.5 -5t16 -1.5q17 0 31.5 6.5t25 17t17 25t6.5 31.5t-6.5 31.5t-17 25t-25 17t-31.5 6.5t-31.5 -6.5t-25 -17t-17 -25 t-6.5 -31.5v-3.5v-3t0.5 -3t0.5 -3.5l-215 -107q-6 5 -12.5 9.5t-14 8t-15.5 5t-16 1.5q-17 0 -31.5 -6.5t-25 -17t-17 -25t-6.5 -31.5t6.5 -31.5t17 -25t25 -17t31.5 -6.5q8 0 16 1.5t15.5 5t14 8t12.5 9.5l215 -107q0 -2 -0.5 -3.5t-0.5 -3v-3v-3.5q0 -17 6.5 -31.5 t17 -25t25 -17t31.5 -6.5t31.5 6.5t25 17t17 25t6.5 31.5t-6.5 31.5t-17 25t-25 17t-31.5 6.5v0z" />
<glyph unicode="&#xe622;" d="M427 480h-341q-18 0 -33 -6.5t-27.5 -18.5t-18.5 -27.5t-7 -32.5l1 -342q-1 -17 6 -32.5t18.5 -27.5t27.5 -18.5t32 -6.5h343q16 0 32 6.5t27.5 18.5t18.5 27.5t6 32.5l1 342q-1 17 -7 32.5t-18.5 27.5t-27.5 18.5t-33 6.5v0zM428 416h2t3 -0.5t2.5 -1t2.5 -1.5 l-181 -150l-183 150q3 1 3.5 1.5t2.5 1t3 0.5h3h341h1zM86 32h-1h-0.5h-0.5h-1l113 157l-15 14l-116 -116l-1 305l193 -232l191 232l1 -305l-118 116l-13 -14l112 -157h-1t-0.5 0t-0.5 0t0 0h-343h1z" />
<glyph unicode="&#xe623;" d="M280 448h-16.5h-38.5h-44.5h-34.5q-23 0 -44 -8t-37 -21.5t-26 -31t-10 -37.5t7.5 -38t20.5 -31t32 -21t42 -8h3.5t3 0.5t3 0.5h2.5q-1 -3 -2.5 -6t-2 -6t-1 -6.5t-0.5 -6.5q0 -6 1 -11t3.5 -9.5t6 -8.5t7.5 -8h-6h-5.5h-5.5h-6q-28 0 -52 -8.5t-42 -22t-28 -31 t-10 -35.5t11 -32.5t29.5 -25t43.5 -16t53 -5.5q32 0 56.5 8.5t41.5 22t25.5 31t8.5 35.5q0 14 -2.5 26t-8 22.5t-14.5 20t-22 18.5q-5 3 -11 8.5t-11.5 11t-9 11.5t-3.5 11t1 9.5t3.5 8.5t7.5 9t13 11q9 6 16 14t12 17t7.5 18.5t2.5 20.5q0 13 -2.5 25t-8 22.5t-13.5 18 t-19 11.5h43l30 22v0zM233 120q0 -1 0.5 -3t0.5 -3.5v-3.5v-4q0 -14 -5 -27t-16.5 -22t-30 -14.5t-45.5 -5.5q-19 0 -35.5 5.5t-28 15.5t-18.5 23t-7 27q0 15 8 27.5t21.5 22t31.5 15t37 5.5q4 0 8.5 -0.5t8.5 -1t8 -1.5l8 -2q11 -8 19.5 -14t15.5 -11.5t12 -12t7 -15.5v0z M150 266q-13 0 -25 7t-22 18.5t-17 26.5t-9 32t1 31.5t10 25.5t17.5 16.5t23.5 5.5t25 -7t22 -18t17 -26t9 -32t-1 -31.5t-10 -25.5t-17.5 -17t-23.5 -6v0zM416 352v96h-32v-96h-96v-32h96v-96h32v96h96v32h-96z" />
<glyph unicode="&#xe624;" d="M288 -32h-96v256h-64v88h64v52q0 27 4.5 48.5t16 36.5t31.5 23t52 8h71v-88h-44q-13 0 -20 -2.5t-10 -7t-4 -11t-1 -15.5v-44h79l-9 -88h-70v-256v0z" />
<glyph unicode="&#xe625;" d="M512 383q-7 -3 -14.5 -6t-15 -5t-15 -3.5t-15.5 -2.5q8 5 15 11.5t13 13.5t10.5 15.5t7.5 17.5l-16 -8t-16 -7t-17 -5.5t-18 -4.5q-7 8 -15.5 14t-18.5 10t-20.5 6.5t-22.5 2.5q-21 0 -40.5 -8t-33.5 -22.5t-22.5 -33.5t-8.5 -41q0 -3 0.5 -6t0.5 -6t0.5 -6t1.5 -6 q-33 2 -63.5 10.5t-58 22.5t-51.5 33.5t-43 43.5q-4 -6 -6.5 -12.5t-4.5 -13t-3 -13.5t-1 -14q0 -14 3.5 -26.5t9.5 -24t15 -20.5t19 -16q-6 0 -12.5 1t-12.5 2.5t-11.5 4t-10.5 5.5v-0.5v-0.5v0v-1q0 -19 6 -36t17.5 -30.5t27 -23t33.5 -13.5q-3 -1 -6.5 -1.5l-7 -1 t-7 -0.5h-7.5h-4.5h-5t-5 0.5t-5.5 1.5q5 -16 14.5 -29.5t22.5 -23t28.5 -15t33.5 -5.5q-14 -11 -29 -19.5t-31.5 -14t-34 -8.5t-36.5 -3h-6h-6.5t-6.5 0.5t-6 0.5q17 -11 36 -20t39.5 -15t42 -9t43.5 -3q72 0 128 27t94 70t57.5 96.5t19.5 105.5v3.5v3v3.5v3q7 6 14.5 12 t14 13t12.5 14.5t11 15.5v0z" />
<glyph unicode="&#xe626;" d="M68 105q-14 0 -26.5 -5.5t-21.5 -15t-14.5 -21.5t-5.5 -27q0 -14 5.5 -26t14.5 -21.5t21.5 -14.5t26.5 -5t26.5 5t22 14.5t14.5 21.5t5 26q0 15 -5 27t-14.5 21.5t-22 15t-26.5 5.5v0zM0 306v-98q24 0 47 -4.5t44.5 -13.5t41 -22t36.5 -30t30 -36.5t22 -41.5t13.5 -45 t4.5 -47h99q0 70 -26.5 131.5t-72.5 107.5t-107.5 72.5t-131.5 26.5v0zM0 480v-98q86 0 161 -32.5t131 -89t89 -131.5t33 -161h98q0 106 -40.5 199t-110 162.5t-162.5 110t-199 40.5v0z" />
<glyph unicode="&#xe627;" d="M416 416h-320q-20 0 -37.5 -7.5t-30.5 -20.5t-20.5 -30.5t-7.5 -37.5v-192q0 -20 7.5 -37.5t20.5 -30.5t30.5 -20.5t37.5 -7.5h320q20 0 37.5 7.5t30.5 20.5t20.5 30.5t7.5 37.5v192q0 20 -7.5 37.5t-20.5 30.5t-30.5 20.5t-37.5 7.5v0zM192 96v256l160 -128l-160 -128v0 z" />
<glyph unicode="&#xe628;" d="M0 326l21 -27l7 5t16 9.5t19 6.5t15 -5q5 -6 17 -42t25 -79t25.5 -83t19.5 -54q6 -13 17 -26t25 -21t31 -9t35 10q18 12 53 42t72.5 74t69 98.5t41.5 114.5q11 61 -18 86t-70 20.5t-80 -35.5t-47 -84q22 13 38 11.5t24.5 -12.5t8.5 -29.5t-12 -39.5q-11 -21 -21.5 -38 t-19.5 -29t-17 -18.5t-13 -6.5t-10 6.5t-10 20t-10 32.5t-12 43q-6 26 -10.5 58.5t-12.5 60t-22.5 45t-41.5 12.5q-25 -5 -52 -24t-49.5 -39.5t-37 -37l-14.5 -16.5v0z" />
<glyph unicode="&#xe629;" d="M0 202q0 -9 0.5 -17l1 -16t2 -15.5t3.5 -14.5q1 -7 3 -13.5t4.5 -13t5 -12t5.5 -10.5q2 -5 5.5 -10t7 -9.5t7.5 -9t9 -8.5q4 -4 9 -7.5t9.5 -6.5t9.5 -6t10 -5q6 -3 11.5 -5.5t11.5 -4.5t12 -3.5t13 -3.5q6 -1 13 -2.5t14 -2.5t13.5 -2t13.5 -1q7 -1 14.5 -1.5l15 -1 t15.5 -0.5h16h17t15.5 0.5l15 1t14.5 1.5q7 0 13.5 1t13.5 2t14 2.5t13 2.5q7 2 13.5 3.5t12.5 3.5t11.5 4.5t10.5 5.5q5 2 10 5l10 6t9.5 6.5t9.5 7.5q4 4 8 8.5l8 9t7 9.5l6 10t5.5 10.5t5 12t4.5 13t3 13.5q2 7 3.5 14.5t2 15.5l1 16t0.5 17q0 15 -2.5 29.5t-8 28t-13 26 t-18.5 23.5q1 2 1.5 3.5l1 3t1 3.5t1.5 4q0 2 0.5 4t1 5l1 6t0.5 7q0 3 0.5 7t0 8t-0.5 8.5t-1 8.5q-1 5 -2 9.5t-2.5 9.5t-3 9.5t-3.5 9.5l-4 1h-2h-3h-3.5t-4.5 -1q-2 0 -4.5 -0.5l-5 -1t-5.5 -1t-6 -1.5t-6.5 -2t-7.5 -3t-8.5 -4t-8.5 -4q-5 -2 -10 -5l-10 -6t-10 -6.5 t-11 -6.5q-9 2 -20 4t-23.5 3.5t-26.5 2t-30 0.5t-30 -0.5t-26.5 -2t-23.5 -3.5t-20 -4q-6 3 -11 6.5t-10 6.5l-10 6t-10 5t-9.5 4t-8 4t-7 3t-6.5 2t-5.5 1.5t-5.5 1t-5.5 1t-4.5 0.5q-3 1 -5 1h-3.5h-2.5h-2h-1.5t-1 -0.5t-1 -0.5h-0.5q-2 -5 -3.5 -9.5t-3 -9.5t-2.5 -9.5 t-2 -9.5q-1 -4 -1 -8.5t-0.5 -8.5t0 -8t0.5 -7q0 -4 0.5 -7l1 -6t1 -5t0.5 -4q1 -2 1.5 -4t1 -3.5l1 -3t1.5 -3.5q-11 -11 -18.5 -23.5t-13 -26t-8 -28t-2.5 -29.5v0zM63 139q0 9 2 17.5t6 17t10 16.5t15 15q2 2 4.5 4t5.5 4t6 3.5t6 2.5q4 1 7.5 2t7 1.5t7.5 1t8 0.5h8h8h8 h7q4 -1 8 -1t9 -0.5t10 -0.5t10 -1q6 0 11 -0.5t10 -0.5h9h8h8.5h9.5t10 0.5t10 0.5q6 1 11 1t9.5 0.5t9 0.5t7.5 1h8h8h8h8t8 -0.5t7.5 -1t7 -1.5t6.5 -2q4 -1 7 -2.5t5.5 -3.5t5.5 -4t5 -4q8 -7 14.5 -15t10.5 -16.5t6 -17t2 -17.5q0 -5 -0.5 -10.5t-1 -10t-1.5 -9 t-2 -8.5q-2 -4 -3.5 -8t-3 -7.5t-3.5 -6.5l-4 -6t-4.5 -5.5t-5.5 -5t-6.5 -4.5t-7.5 -4q-3 -2 -7 -4t-7.5 -3.5t-7 -2.5t-7.5 -2q-3 -2 -7 -2.5t-8.5 -1.5t-9.5 -1.5t-11 -1.5q-5 -1 -10.5 -1.5t-10.5 -0.5t-9.5 -0.5t-8.5 -0.5h-10h-10.5h-11.5h-13h-12.5h-12h-10h-9.5 q-4 0 -8.5 0.5t-9.5 0.5t-10.5 0.5t-10.5 1.5q-6 1 -11 1.5t-9.5 1.5t-8.5 1.5t-8 2.5q-3 1 -6.5 2t-7.5 2.5t-7.5 3.5t-7.5 4q-3 2 -6.5 4t-6.5 4.5t-5.5 5t-4.5 5.5l-4 6t-3.5 6.5t-3 7.5t-3.5 8q-1 4 -2 8.5t-1.5 9t-1 10t-0.5 10.5v0zM320 144q0 10 2.5 18.5t7 15 t10 10.5t12.5 4t12.5 -4t10 -10.5t7 -15t2.5 -18.5t-2.5 -18.5t-7 -15t-10 -10.5t-12.5 -4t-12.5 4t-10 10.5t-7 15t-2.5 18.5v0zM128 144q0 10 2.5 18.5t7 15t10 10.5t12.5 4t12.5 -4t10 -10.5t7 -15t2.5 -18.5t-2.5 -18.5t-7 -15t-10 -10.5t-12.5 -4t-12.5 4t-10 10.5 t-7 15t-2.5 18.5v0z" />
<glyph unicode="&#xe62a;" d="M424 160l-7 208q-1 3 0.5 6t3.5 5t5 3.5t6 1.5h64q3 0 6 -1t4.5 -3.5t2.5 -5.5t0 -6l-37 -208h-48zM480 92q0 -6 -2 -11t-6 -9t-9 -6t-11 -2h-8q-6 0 -11 2t-9 6t-6 9t-2 11v8q0 6 2 11t6 9t9 6t11 2h8q6 0 11 -2t9 -6t6 -9t2 -11v-8v0zM192 384q-40 0 -75 -12.5 t-61 -34.5t-41 -51t-15 -62t15 -62t41 -51t61 -34.5t75 -12.5t75 12.5t61 34.5t41 51t15 62t-15 62t-41 51t-61 34.5t-75 12.5v0zM320 256h-37l-59 -59v-37h48v-32h-128v32h48v37l-91 91h-21v32h96v-32h-21l53 -53l16 16v37h96v-32v0z" />
<glyph unicode="&#xe62b;" d="M284 112q-15 -7 -30 -11t-28 -5t-25 -1.5t-21 1.5q-12 -1 -22 1.5t-19 4.5t-15 5.5t-11 4.5q-1 3 -4.5 3h-5.5t-5 -2t-4 -3q-3 -4 -3 -6.5v-5.5t2 -5t4 -5q7 -3 15.5 -7.5t19.5 -7l22 -5t24 -1.5q1 -2 3.5 -1.5t4.5 0t4.5 0t4.5 -0.5q11 1 22.5 1t25 3t26.5 6.5t28 10.5 q2 0 4.5 3t3 5t0.5 5.5t-2 4.5q0 4 -2.5 5.5l-5 3t-5.5 1t-5 -0.5zM445 133q2 48 0 110.5t-21.5 117.5t-67 90t-137.5 29q-91 -8 -129 -52.5t-49.5 -102t-5.5 -113.5t4 -89q0 -16 -4 -35t-8.5 -38t-11.5 -40t-14 -41l64 -1q3 10 4.5 18t4 17.5t3 17.5t2.5 17q1 -2 3 -2.5 t3 -2t3 -2t3 -2.5q3 0 5 -2.5t5 -4t5 -4t6 -4.5q4 -6 11 -11t14.5 -10t18 -7.5t22.5 -4.5q1 1 1.5 0.5t2 0t2 0t1.5 0.5q12 -1 23.5 2t20.5 6.5t17.5 9t14.5 8.5q5 4 7.5 5.5t6 3.5t6 3t6.5 3q6 1 14 5l14 7t12.5 8t11.5 9q1 2 1.5 2.5l1.5 1.5l1.5 1.5l2.5 2.5 q1 -12 5 -22.5t7.5 -22.5t8 -23t7.5 -24l139 1q-13 18 -24.5 38t-21.5 39.5t-15.5 41.5t-6.5 45v0zM63 203q-1 -1 -0.5 -0.5t0 0t0 0t-0.5 -0.5q0 16 2.5 29.5t9 24.5t14.5 17t19 7q9 0 18.5 -5t16.5 -15t12 -23t5 -30q1 1 0.5 0.5t0 0t0 0t0.5 0.5q-1 -1 -0.5 -1.5t0 -2 t0 -1.5t-0.5 -2q-2 0 -5.5 -1.5t-6 -2t-5.5 -2.5t-5 -2q-1 -1 -0.5 -0.5t0 0.5t0 0.5t-0.5 -0.5q1 1 0.5 0.5t0 0t0 0t0.5 0.5l-4 16t-6.5 12.5t-8.5 8t-10 1.5q-4 1 -8.5 -3.5t-6.5 -10t-3.5 -14t-0.5 -16.5q-1 -1 -0.5 -0.5t0 0t0 0t-0.5 -0.5q2 -3 2 -7t1.5 -7t2.5 -6 t3 -5l-1 -1l-1.5 -1.5t-2.5 -1.5t-3 -2l-1.5 -1.5t-2 -1.5t-2.5 -1.5l-2 -1.5q-5 4 -7.5 10.5t-5.5 12.5t-3.5 14t-2.5 15zM334 101q-2 -9 -6.5 -16.5t-13 -14.5t-17.5 -12t-20 -9l1 1q-5 -2 -8.5 -3.5t-8 -4t-7.5 -4.5t-8 -5q-6 -3 -13 -7.5t-14 -7.5t-16 -5.5t-18 -1.5 q-1 -1 -1.5 -0.5t-1.5 0t-1 0t-2 -0.5q-8 2 -15 3.5t-12.5 5.5t-10.5 7.5t-10 9.5q-4 1 -6 4t-5.5 5t-6.5 5t-8 4l1 1q-9 4 -15 9.5t-11 10t-7 10.5t-3 10v5t2 4.5t3 4t4 3.5q4 3 9 6.5t8 5.5t6 4.5t4 3.5q4 3 5 3.5t2.5 2t2 1.5t1.5 2q0 -1 1 0t0.5 1t0.5 1t1 0 q5 5 11 10.5t14.5 10.5t17.5 8t22 4q6 -1 14 -2t15.5 -4t16 -7t16.5 -10q5 -2 8.5 -4.5t7.5 -3.5t7.5 -3t9.5 -2q2 -2 5.5 -3t6.5 -2.5t8 -3t8 -4.5l1 1q4 -2 8.5 -4t8 -6t6 -8t1.5 -10zM327 152q-2 0 -2 0.5t-1.5 0.5t-2 1t-2.5 0q-3 3 -7 4t-7 3t-6.5 2.5t-5.5 2.5 q1 2 2.5 5.5t2 7t1.5 7.5t0 7q1 1 0.5 0.5t0 0t0 0t0.5 0.5q-1 9 -2.5 18t-6 15t-9.5 10.5t-13 3.5q-5 1 -11 -3.5t-10 -10t-7 -15t-2 -17.5q-1 -1 -0.5 -0.5t0 0t0 0t-0.5 -0.5q1 0 0.5 -0.5t0 -0.5t0 -1t0.5 0q-5 1 -8.5 3t-7.5 2.5t-7.5 2.5t-8.5 1q1 2 0.5 1.5t0 0.5 t0 1t0.5 1q-1 -1 -0.5 -0.5t0 0t0 0t-0.5 -0.5q1 19 5.5 34.5t14 28t21 19t26.5 8.5q13 -1 25.5 -7t21.5 -18t15 -27t6 -34q1 1 0.5 0.5t0 0t0 0t0.5 0.5q-1 -9 -1.5 -16.5t-3 -15t-5 -13.5t-7.5 -13z" />
<glyph unicode="&#xe62c;" d="M396 208q0 24 8 42t18 30t19 18.5t10 6.5q-11 17 -25 27t-27 15t-24 7t-18 2q-15 2 -29 -1.5t-27 -8.5t-23.5 -9t-18.5 -4q-7 0 -16.5 3.5t-20.5 7.5t-23 7.5t-24 3.5q-16 0 -31.5 -4.5t-29.5 -13t-25.5 -20.5t-19.5 -26q-17 -30 -20 -65t3 -70t19.5 -67t29.5 -56 q8 -12 17 -23.5t19 -21t21.5 -15t23.5 -5.5q12 1 21.5 4t18.5 7t19 7t25 3t25 -3.5t19 -7t18.5 -7t22.5 -2.5q13 0 23.5 5.5t20 14t18 20t16.5 23.5q9 13 15.5 26t11 23t6.5 16.5l2 6.5q0 1 -10.5 6t-23.5 17t-23.5 32t-10.5 49v0zM331 398q7 8 12.5 18t9 20t5 21.5 t0.5 22.5q-10 0 -20.5 -3.5t-20.5 -8.5t-19 -12t-15 -15q-7 -7 -12.5 -16t-9.5 -19.5t-5.5 -21.5t-0.5 -22q11 -1 22 1.5t20.5 7.5t18.5 12t15 15v0z" />
<glyph unicode="&#xe62d;" d="M432 320q-7 0 -12.5 -2.5t-10 -7t-7 -10t-2.5 -12.5v-128q0 -7 2.5 -12.5t7 -10t10 -7t12.5 -2.5t12.5 2.5t10 7t7 10t2.5 12.5v128q0 7 -2.5 12.5t-7 10t-10 7t-12.5 2.5v0zM48 320q-7 0 -12.5 -2.5t-10 -7t-7 -10t-2.5 -12.5v-128q0 -7 2.5 -12.5t7 -10t10 -7 t12.5 -2.5t12.5 2.5t10 7t7 10t2.5 12.5v128q0 7 -2.5 12.5t-7 10t-10 7t-12.5 2.5v0zM96 112q0 -10 4 -18.5t10.5 -15t15 -10.5t18.5 -4h16v-64q0 -7 2.5 -12.5t7 -10t10 -7t12.5 -2.5t12.5 2.5t10 7t7 10t2.5 12.5v64h32v-64q0 -7 2.5 -12.5t7 -10t10 -7t12.5 -2.5 t12.5 2.5t10 7t7 10t2.5 12.5v64h16q10 0 18.5 4t15 10.5t10.5 15t4 18.5v176h-288v-176v0zM299 435l21 39v1.5v1.5t-0.5 1.5l-1.5 1.5h-1.5h-1.5t-1.5 -0.5l-1.5 -1.5l-20 -40q-6 3 -12.5 4.5l-13 3t-13 2t-13.5 0.5t-13.5 -0.5t-13 -2l-13 -3t-12.5 -4.5l-20 40l-1.5 1.5 t-1.5 0.5h-1.5h-1.5l-1.5 -1.5t-0.5 -1.5v-1.5v-1.5l21 -39q-17 -7 -31.5 -19t-25.5 -27t-18 -32.5t-9 -36.5h286q-2 19 -9 36.5t-18 32.5t-25.5 27t-31.5 19v0zM176 345q-5 0 -9 1.5t-7.5 5t-5 7.5t-1.5 9t1.5 9t5 7.5t7.5 5t9 1.5t9 -1.5t7.5 -5t5 -7.5t1.5 -9t-1.5 -9 t-5 -7.5t-7.5 -5t-9 -1.5v0zM304 345q-5 0 -9 1.5t-7.5 5t-5 7.5t-1.5 9t1.5 9t5 7.5t7.5 5t9 1.5t9 -1.5t7.5 -5t5 -7.5t1.5 -9t-1.5 -9t-5 -7.5t-7.5 -5t-9 -1.5v0z" />
<glyph unicode="&#xe62e;" d="M0 224v156l192 26v-182h-192zM224 411l256 37v-224h-256v187zM480 192v-224l-256 36v188h256zM192 8l-192 26v158h192v-184z" />
<glyph unicode="&#xe62f;" d="M128 160q0 7 2.5 12.5t7 10t10 7t12.5 2.5t12.5 -2.5t10 -7t7 -10t2.5 -12.5t-2.5 -12.5t-7 -10t-10 -7t-12.5 -2.5t-12.5 2.5t-10 7t-7 10t-2.5 12.5v0zM320 160q0 7 2.5 12.5t7 10t10 7t12.5 2.5t12.5 -2.5t10 -7t7 -10t2.5 -12.5t-2.5 -12.5t-7 -10t-10 -7t-12.5 -2.5 t-12.5 2.5t-10 7t-7 10t-2.5 12.5v0zM322 92q3 2 6.5 3t7 0.5t7 -2t5.5 -5.5q3 -3 4 -6.5t0.5 -7t-2.5 -7t-5 -5.5q-9 -7 -19.5 -12.5t-22 -9.5t-23.5 -6t-24 -2t-24 2t-23.5 6t-22 9.5t-19.5 12.5q-3 2 -5 5.5t-2.5 7t0.5 7t4 6.5q2 4 5.5 5.5t7 2t7 -0.5t6.5 -3 q5 -4 12.5 -8t16 -7t18 -5t19.5 -2t19.5 2t18 5t16 7t12.5 8v0zM512 224q0 13 -5 25t-13.5 20.5t-20.5 13.5t-25 5q-9 0 -17.5 -2.5t-15.5 -6.5t-13 -10.5t-10 -13.5q-12 7 -26 12.5t-28.5 9.5t-30 6.5t-32.5 3.5l39 86l73 -21q2 -7 6.5 -13t10.5 -10t13 -6.5t15 -2.5 q10 0 18.5 4t15 10.5t10.5 15t4 18.5t-4 18.5t-10.5 15t-15 10.5t-18.5 4q-7 0 -13.5 -2t-11.5 -5t-9.5 -8t-7.5 -10l-82 23q-3 1 -6.5 1t-6.5 -1.5t-5.5 -4t-3.5 -5.5l-52 -117q-16 -1 -31.5 -3.5t-29.5 -6.5t-27.5 -9.5t-25.5 -12.5q-4 7 -10 13.5t-13 10.5t-15.5 6.5 t-17.5 2.5q-13 0 -25 -5t-20.5 -13.5t-13.5 -20.5t-5 -25q0 -10 3 -19t8 -16.5t12 -13.5t15 -10q-1 -4 -2.5 -8.5t-2 -9.5t-1 -9.5t-0.5 -9.5q0 -33 17.5 -62t48 -51t71.5 -34.5t87 -12.5t87 12.5t71.5 34.5t48 51t17.5 62q0 5 -0.5 9.5t-1 9.5t-2 9.5t-2.5 8.5q8 4 15 10 t12 13.5t8 16.5t3 19v0zM432 386q4 0 7 -1.5t5.5 -4t4 -5.5t1.5 -7t-1.5 -7t-4 -5.5t-5.5 -4t-7 -1.5t-7 1.5t-5.5 4t-4 5.5t-1.5 7t1.5 7t4 5.5t5.5 4t7 1.5v0zM32 224q0 7 2.5 12.5t7 10t10 7t12.5 2.5q5 0 9.5 -1.5t8 -4t6.5 -5.5t5 -7l-12 -10t-11 -10.5t-9.5 -11.5 t-8.5 -12q-4 2 -8 5t-6.5 7t-4 8.5t-1.5 9.5v0zM256 6q-39 0 -72.5 9.5t-59 26t-40 39t-14.5 47.5t14.5 47.5t40 39t59 26t72.5 9.5t72.5 -9.5t59 -26t40 -39t14.5 -47.5t-14.5 -47.5t-40 -39t-59 -26t-72.5 -9.5v0zM460 194q-4 6 -8.5 12t-9.5 11.5t-11 10.5l-12 10 q2 4 5 7t6.5 5.5t8 4t9.5 1.5q7 0 12.5 -2.5t10 -7t7 -10t2.5 -12.5q0 -5 -1.5 -9.5t-4 -8.5t-6.5 -7t-8 -5v0z" />
<glyph unicode="&#xe630;" d="M426 480h-340q-18 0 -33.5 -7t-27 -18.5t-18.5 -27t-7 -33.5v-340q0 -18 7 -33.5t18.5 -27t27 -18.5t33.5 -7h340q18 0 33.5 7t27 18.5t18.5 27t7 33.5v340q0 18 -7 33.5t-18.5 27t-27 18.5t-33.5 7v0zM192 64h-64v224h64v-224v0zM160 320q-7 0 -12.5 2.5t-10 7t-7 10 t-2.5 12.5t2.5 12.5t7 10t10 7t12.5 2.5t12.5 -2.5t10 -7t7 -10t2.5 -12.5t-2.5 -12.5t-7 -10t-10 -7t-12.5 -2.5v0zM416 64h-64v128q0 7 -2.5 12.5t-7 10t-10 7t-12.5 2.5t-12.5 -2.5t-10 -7t-7 -10t-2.5 -12.5v-128h-64v224h64v-40q5 7 11 14t13.5 13t15.5 9.5t16 3.5 q15 0 28 -6.5t23 -17t15.5 -25t5.5 -31.5v-144v0z" />
<glyph unicode="&#xe631;" d="M256 480q-53 0 -99.5 -20t-81.5 -55t-55 -81.5t-20 -99.5t20 -99.5t55 -81.5t81.5 -55t99.5 -20t99.5 20t81.5 55t55 81.5t20 99.5t-20 99.5t-55 81.5t-81.5 55t-99.5 20v0zM281 138q-9 1 -15.5 3t-12 5.5t-11.5 7.5l-12 8q-4 -19 -8.5 -38t-11.5 -36t-16 -31t-23 -24 q-4 30 -2 56.5t7.5 51t12 48t11.5 47.5q-8 13 -8 32t7 34.5t20 24t30 1.5q21 -8 17.5 -30.5t-11.5 -47.5t-9.5 -46.5t25.5 -26.5q28 -6 47 14.5t27.5 50.5t5 61.5t-20.5 49.5q-25 25 -58.5 27t-62 -13t-46 -44t-12.5 -65q2 -9 6.5 -15.5t7.5 -13t3 -15t-7 -20.5 q-16 4 -26.5 11.5t-16.5 19t-8.5 26t-1.5 31.5q1 27 12 50t29 40.5t41 28t47 13.5q30 3 58 -2.5t51 -19t38 -34.5t19 -49q4 -32 -2.5 -63.5t-22.5 -56.5t-40.5 -39.5t-56.5 -11.5v0z" />
<glyph unicode="&#xe632;" d="M440 415q5 -2 9.5 -5t8.5 -6t7.5 -7.5t7.5 -7.5q6 -9 10 -19t6 -22t1.5 -25t-3.5 -28q-3 -14 -7.5 -28t-11 -26t-14.5 -23t-18 -19q-1 -3 -3 -4.5t-4 -3.5t-4 -3t-3 -4q-11 -7 -22.5 -13.5t-24 -10t-26 -6.5t-27.5 -2l-120 -1l-32 -150l-66 -1l5 24l23 -1l32 153l94 -1 q34 1 64.5 10.5t55 29t41.5 47t25 63.5q8 40 0 69.5t-26.5 48t-43.5 28.5t-50 9l-224 1l-100 -458l76 1l-12 -56l132 1l32 150l94 1q34 -1 64.5 10t55 29.5t41.5 47t25 62.5q6 31 3 54t-13 41.5t-25 30.5t-33 21v-1zM211 387l65 1q12 -1 21.5 -5.5t16 -13.5t8.5 -20t-2 -25 q-3 -12 -10.5 -23.5t-17.5 -19.5t-22.5 -13.5t-24.5 -4.5l-62 -1l28 126v-1z" />
<glyph unicode="&#xe633;" d="M30 480l41 -461l185 -51l185 51l41 461h-452v0zM392 329h-216l5 -58h206l-15 -173l-116 -32l-116 32l-8 89h57l4 -45l63 -17v0l63 17l6 73h-195l-16 171h283l-5 -57v0z" />
<glyph unicode="&#xe634;" d="M76 456l-17 -86h350l-11 -56h-350l-17 -86h350l-20 -98l-141 -46l-122 46l8 43h-86l-20 -103l202 -78l233 78l77 386h-436z" />
<glyph unicode="&#xe635;" d="M129 257l-73 127q17 22 39.5 39.5t48 30t54 19.5t58.5 7q35 0 67.5 -9t61 -25.5t52 -39.5t39.5 -51h-209h-2.5h-3h-3h-2.5q-23 0 -43.5 -7.5t-37.5 -20.5t-28.5 -31t-17.5 -39v0zM348 317h146q5 -11 8 -22.5t5.5 -23t3.5 -24t1 -24.5q0 -53 -20 -99t-54 -81t-80.5 -55 t-98.5 -21l105 181q5 8 9.5 17t7.5 18.5t4.5 19.5t1.5 20q0 14 -2.5 27t-8 24.5t-12.5 22.5t-16 19v1zM163 223q0 18 7.5 35.5t20 29.5t29.5 20t36 7q19 1 36 -7t29.5 -20t20 -29.5t7.5 -35.5q0 -20 -7.5 -36.5t-20 -29.5t-29.5 -20t-36 -8q-19 1 -36 8t-29.5 20t-20 29.5 t-7.5 36.5v0zM291 96l-73 -126q-46 6 -86 28.5t-69.5 56t-46 77t-16.5 90.5q0 18 2 34t6.5 32.5t10.5 31t14 29.5l104 -183q8 -15 20.5 -29.5t27.5 -24t33 -15.5t38 -5q5 -1 9.5 0t8.5 1t8.5 1.5t8.5 1.5v0z" />
<glyph unicode="&#xe636;" d="M511 313l-6 -38l-1.5 11.5t-4 27t-6 32t-7.5 26.5q-6 15 -10 23t-7 11.5t-4.5 4.5l-1.5 1q4 -11 6 -18.5t2.5 -13t0.5 -8v-2.5l-3.5 8.5t-12 19.5t-21.5 22.5t-32 17.5q-20 7 -36 9.5t-27.5 3.5t-17.5 0t-7 -1h-1v0h-0.5h-0.5v0h0.5h0.5v0v0v0v0v0l10 -2t22.5 -5.5t24 -8 t15.5 -10.5h-4.5t-11.5 -0.5t-16.5 -2t-18.5 -4.5q-1 0 14 -3.5t35 -14.5t39 -32.5t26 -57.5l-2 3.5t-5 8t-7.5 8.5t-9.5 6q4 -10 5 -23.5t0.5 -27.5t-2 -27t-4.5 -22q-1 -1 -1.5 1t-2.5 5.5t-5.5 7.5t-9.5 7q2 -14 2 -31t-3 -33t-9 -28.5t-15 -19.5q-1 0 1 8.5t4 17.5 t2.5 13.5t-4.5 -4.5q-27 -41 -55 -53.5t-54 -9t-48 16t-36 22.5q7 -2 17 -2t20 2t19.5 5t15.5 8v0v0v0v0q7 4 12.5 8t10 6.5t8 3.5t7.5 1q3 -1 6 0t4.5 3.5t1 5.5t-3.5 6q-2 3 -7 6.5t-11 6t-14 3t-17 -1.5q-6 -2 -13.5 -5.5t-16 -5.5t-18.5 -1t-22 8q-9 5 -14.5 10 t-8.5 9.5t-3.5 8.5t-0.5 7v2t0.5 2l1 2t0.5 2q1 3 3 5t4.5 3.5t4.5 2.5t4 1q3 0 6 -1.5t5.5 -1.5t5.5 -2t6 -2v1.5v2v2.5v2v2.5v2.5t-0.5 3t-0.5 4q0 1 -0.5 3.5t-1 4t-1 3.5t-1.5 3q0 1 0 0.5v0v0t0 0.5q0 -1 0 -0.5v0v0t0 -0.5q1 1 1 0.5v0v0t0 0.5q0 -1 0 -0.5v0v0 t0 -0.5v1v0.5v0t0 0.5l1 1.5t2.5 2.5t4 3t5.5 3q2 3 4.5 4t5 3t4.5 3t5 4q1 0 3 1.5t3 1.5t2 1l1 1q0 1 0.5 0.5t0.5 0v0t0 1.5q0 -1 0 -0.5t0.5 0t0.5 0t0 -0.5q0 1 0 0.5v0v0t0 0.5q1 0 2 1.5l2 3t2 4t1 5.5q0 1 0 0.5v0v0t0 0.5q0 -1 0 -0.5v0v0t0 -0.5v1v0.5v0t0 0.5 q0 -1 0 -0.5v0v0t0 -0.5q0 2 0 1.5v0v0t0 0.5q0 -1 0 -0.5v0v0t0 -0.5q0 2 0 1.5t0 0.5v1v1v0t0 0.5v0t0 -0.5q0 1 0 0.5v0v0.5v1q0 -1 0 -0.5v0v0t0 -0.5q0 1 0 0.5v0v0t0 0.5q0 -1 0 -0.5v0v0t0 -0.5q0 1 0 0.5v0v0t0 0.5q0 -1 0 -0.5v0v0t0 -0.5q0 2 -1 2t-3 1t-5.5 0.5 t-8.5 0.5q0 -1 0 -0.5v0v0t0 -0.5v1q-2 -1 -4.5 -0.5t-5 0t-5.5 0t-7 -0.5q-6 1 -11 3t-8.5 6.5t-6 7.5t-3.5 7q2 7 5 14.5t7 13.5t10 11.5t13 8.5q0 1 0 0.5v0v0t0 0.5q1 0 -6 0t-18 -3t-23 -9t-21 -17q-7 2 -14 2.5t-13.5 1t-12.5 -0.5t-12 -1q-1 -1 -2 -0.5t-2.5 0 t-3 0.5t-3.5 0q-3 4 -7.5 8.5t-8 11t-6 12.5t-3.5 15q0 -1 0 -0.5v0v0t0 -0.5q0 1 0 0.5v0v0t0 0.5q0 -1 -4.5 -5t-10 -15t-9 -27t-2.5 -41v0v-1v-0.5v-0.5q-3 -5 -5 -8t-4 -6.5t-2.5 -5.5t-0.5 -3q-3 -5 -6 -12.5t-5.5 -15.5t-5 -19.5t-4.5 -22.5q0 -1 1 1.5t2.5 6t3.5 9 t6 10.5q-3 -6 -5 -15.5t-3 -20.5t-1.5 -25.5t0.5 -30.5q0 -1 0.5 1.5l1 5t1 7.5t1.5 9q1 -9 3 -21t6 -24.5t10.5 -26.5t14.5 -28q17 -30 38 -51t45 -36.5t50.5 -23.5t55.5 -12q5 1 10 0.5t10 0t10 0t10 0.5q1 -1 1.5 -0.5t1 0.5t1 0.5t0.5 -0.5q6 1 12 1t11.5 1.5t11.5 2 t12 3.5q80 18 119.5 69t55 103.5t15 94t-0.5 40.5v1z" />
<glyph unicode="&#xe637;" d="M367 166h118q0 3 0.5 6t0.5 6v6v7q0 15 -2 29.5t-5.5 28t-9 27t-12.5 25.5q7 19 10.5 37t3 33.5t-6 28.5t-14.5 23q-10 9 -26.5 12.5t-38 2t-47.5 -8.5t-55 -19h-4h-4t-4 0.5t-4 0.5q-39 0 -74 -13t-63 -35t-48 -52.5t-29 -66.5q12 16 24.5 29.5t26.5 25t29 21t32 17.5 q-2 -1 -6.5 -5.5l-10 -10l-10 -10t-5.5 -6.5q-45 -44 -74.5 -93.5t-44 -94t-14.5 -79t16 -49.5q11 -12 27 -17t35.5 -4t42 8t46.5 18q11 -5 23 -9.5t24.5 -7.5t25.5 -4.5t27 -1.5q36 0 68.5 11t60 30.5t47.5 47t32 59.5h-119q-6 -11 -15 -20.5t-20 -16t-24 -10t-26 -3.5 q-14 0 -27 3.5t-24 10t-19.5 16t-15.5 20.5q-2 6 -4.5 11t-3.5 11l-2 12t-1 12v1h193v0zM174 224q1 18 8.5 34t20 27.5t29 18.5t35.5 7q18 0 34.5 -7t29 -18.5t20 -27.5t8.5 -34h-185v0zM448 398q7 -6 10 -15t3 -20t-2.5 -24t-8.5 -28q-9 14 -20 26.5t-24 23t-27.5 19.5 t-30.5 15q17 7 32 11t28 4.5t23 -2.5t17 -10v0zM47 -4q-8 8 -11 20.5t-1.5 28t8 33.5t16.5 39q7 -18 16.5 -34.5t21 -31t26 -27t30.5 -22.5q-18 -8 -34 -12.5t-29.5 -5.5t-24.5 2t-18 10v0z" />
<glyph unicode="&#xe638;" d="M255 480q-52 0 -96.5 -18t-76.5 -51.5t-49.5 -80.5t-17.5 -104q0 -50 17.5 -97t49 -82.5t76 -57t97.5 -21.5q54 0 98.5 21.5t76.5 57t49.5 82.5t17.5 97q0 58 -18 105t-50.5 80t-77 51t-96.5 18v0zM344 231q0 -32 -2 -68t-10.5 -66.5t-26.5 -51t-50 -20.5v0 q-31 0 -48.5 20.5t-26 51t-10.5 66.5t-2 68q0 37 3 72t12 62t26 43.5t46 16.5t46.5 -16.5t27 -44t12.5 -62.5t3 -71v0z" />
<glyph unicode="&#xe639;" d="M256 448h-9t-8.5 -0.5l-9 -1t-8.5 -1.5q0 1 -0.5 1h-0.5v0v1q3 1 4.5 3.5t2.5 5t1.5 5t-0.5 4.5q0 4 -2 6.5t-5 4.5t-7 3t-9 1h-2h-2t-2 -0.5t-2 -0.5q-5 -1 -9.5 -3.5t-8 -6t-4.5 -7.5t0 -8q0 -3 1.5 -5t3.5 -3.5t4.5 -3t5.5 -2.5v0v-0.5v-0.5v0q-38 -11 -70 -33 t-55 -52.5t-36 -67.5t-13 -78q0 -50 19 -93.5t51.5 -76t76 -51.5t93.5 -19t93.5 19t76 51.5t51.5 76t19 93.5t-19 93.5t-51.5 76t-76 51.5t-93.5 19v0zM182 456q0 2 1 4.5t3.5 4.5t5.5 4t7 2q1 1 1.5 1h1.5h1.5h1.5q3 0 5.5 -0.5t5 -1.5t3.5 -3t2 -3q0 -2 -0.5 -3.5t-1 -2.5 t-2 -2.5l-2.5 -2.5q-1 1 -2.5 1.5t-3.5 1t-3.5 0.5t-3.5 -1q-1 0 -2.5 -0.5t-3 -1.5t-2.5 -2.5t-2 -2.5q-2 0 -3.5 1l-3 2t-2 2l-1.5 3v0zM385 79q-9 -8 -18 -15t-18.5 -13t-20 -10.5t-21.5 -7.5l-21 35l-6 -40q-3 -1 -6 -1t-6 -0.5t-6 -0.5h-6q-18 0 -35.5 3.5t-34 10.5 t-31.5 16.5t-28 22.5q-8 9 -15 18t-13 18.5t-10.5 20t-7.5 21.5l35 21l-40 6q-1 3 -1 6t-0.5 6t-0.5 6v6q0 18 3.5 35.5t10.5 34t16.5 31.5t22.5 28q9 8 18 15t18.5 13t20 10.5t21.5 7.5l21 -35l6 40q3 1 6 1t6 0.5t6 0.5h6q18 0 35.5 -3.5t34 -10.5t31.5 -16.5t28 -22.5 q8 -9 15 -18t13 -18.5t10.5 -20t7.5 -21.5l-35 -21l40 -6q1 -3 1 -6t0.5 -6t0.5 -6v-6q0 -18 -3.5 -35.5t-10.5 -34t-16.5 -31.5t-22.5 -28v0zM380 332l-98 -74l-6 2l-6 2t-6 1.5t-6 0.5l-25 54l-2 -60q-2 -1 -4.5 -2.5t-4.5 -3t-4 -3.5l-4 -4l-32 11l23 -24q-1 -3 -2 -5.5 t-1.5 -5t-1 -5.5t-0.5 -6l-54 -25l60 -2v0v-0.5v-0.5v0l-74 -98l98 74l6 -2l6 -2t6 -1.5t6 -0.5l25 -54l2 60q2 1 4.5 2.5t4.5 3t4 3.5l4 4l32 -11l-23 24q1 3 2 5.5t1.5 5t1 5.5t0.5 6l54 25l-60 2v0v0.5v0.5v0l74 98v0zM246 255q1 0 2.5 0.5t2.5 0.5h2.5h2.5h1.5h1.5h1.5 h1.5v0v0q2 -1 3.5 -1t3 -0.5l3 -1t3.5 -1.5l-36 -27l-27 -36q-1 1 -1 2t-0.5 2.5t-1 2.5t-0.5 2q-2 10 0 19t7 17t12.5 13.5t17.5 7.5v0zM281 167v0v0q-2 -1 -3.5 -2t-3.5 -1.5t-4 -1.5t-4 -1q-1 0 -2.5 -0.5t-2.5 -0.5h-2.5h-2.5h-1.5h-1.5h-1.5h-1.5v0q-2 1 -3.5 1t-3 0.5 l-3 1t-3.5 1.5l36 27l27 36q1 -1 1 -2t0.5 -2.5t1 -2.5t0.5 -2q2 -8 1 -15.5t-4 -14t-8 -12t-11 -9.5v0z" />
</font>
</defs>
</svg>
